<?xml version="1.0" standalone="no"?><!DOCTYPE svg PUBLIC "-//W3C//DTD SVG 1.1//EN" "http://www.w3.org/Graphics/SVG/1.1/DTD/svg11.dtd"><svg class="icon" width="200px" height="200.00px" viewBox="0 0 1024 1024" version="1.1" xmlns="http://www.w3.org/2000/svg"><path d="M388.4375 466.0625H151.4375c-31.40625 0-56.90625-25.5-56.90625-56.90625V172.15625c0-31.40625 25.5-56.90625 56.90625-56.90625h237c31.3125 0 56.90625 25.5 56.90625 56.90625v237c-0.09375 31.40625-25.59375 56.90625-56.90625 56.90625zM151.4375 150.6875c-11.8125 0-21.46875 9.65625-21.46875 21.46875v237c0 11.8125 9.65625 21.46875 21.46875 21.46875h237c11.8125 0 21.46875-9.65625 21.46875-21.46875V172.15625c0-11.8125-9.65625-21.46875-21.46875-21.46875H151.4375zM872 466.0625H635c-31.3125 0-56.90625-25.5-56.90625-56.90625V172.15625c0-31.40625 25.5-56.90625 56.90625-56.90625H872c31.3125 0 56.90625 25.5 56.90625 56.90625v237c0 31.40625-25.5 56.90625-56.90625 56.90625zM635 150.6875c-11.8125 0-21.46875 9.65625-21.46875 21.46875v237c0 11.8125 9.65625 21.46875 21.46875 21.46875H872c11.8125 0 21.46875-9.65625 21.46875-21.46875V172.15625c0-11.8125-9.65625-21.46875-21.46875-21.46875H635zM388.4375 907.625H151.4375c-31.40625 0-56.90625-25.5-56.90625-56.90625V613.71875c0-31.40625 25.5-56.90625 56.90625-56.90625h237c31.3125 0 56.90625 25.5 56.90625 56.90625v237c-0.09375 31.40625-25.59375 56.90625-56.90625 56.90625zM151.4375 592.25c-11.8125 0-21.46875 9.65625-21.46875 21.46875v237c0 11.8125 9.65625 21.46875 21.46875 21.46875h237c11.8125 0 21.46875-9.65625 21.46875-21.46875V613.71875c0-11.8125-9.65625-21.46875-21.46875-21.46875H151.4375zM872 907.625H635c-31.3125 0-56.90625-25.5-56.90625-56.90625V613.71875c0-31.40625 25.5-56.90625 56.90625-56.90625H872c31.3125 0 56.90625 25.5 56.90625 56.90625v237c0 31.40625-25.5 56.90625-56.90625 56.90625zM635 592.25c-11.8125 0-21.46875 9.65625-21.46875 21.46875v237c0 11.8125 9.65625 21.46875 21.46875 21.46875H872c11.8125 0 21.46875-9.65625 21.46875-21.46875V613.71875c0-11.8125-9.65625-21.46875-21.46875-21.46875H635z" /></svg>