<?xml version="1.0" standalone="no"?><!DOCTYPE svg PUBLIC "-//W3C//DTD SVG 1.1//EN" "http://www.w3.org/Graphics/SVG/1.1/DTD/svg11.dtd"><svg class="icon" width="200px" height="200.00px" viewBox="0 0 1024 1024" version="1.1" xmlns="http://www.w3.org/2000/svg"><path d="M903.591141 923.403884c0 0-0.179079-17.344017-0.179079-26.249851 0-61.61122-40.488133-113.314789-96.293113-131.821281l-0.856507-1.65264-181.88756-52.487422c-33.487695-6.001691-59.107189-37.721113-59.107189-76.229149 0-28.146037 15.007809-47.487547 34.221406-66.126047l0 0c62.978357-48.334845 106.962104-123.968429 106.962104-218.551598 0-3.781116-0.25992-7.486508-0.455371-11.205203 0.091074-2.435469 0.725524-4.714372 0.725524-7.194866 0-108.799962-88.38091-197.031469-197.405999-197.031469-109.024066 0-197.408045 88.23253-197.408045 197.031469 0 2.479471 0.639566 4.758374 0.728594 7.212262-0.196475 3.718695-0.460488 7.40669-0.460488 11.187807 0 94.584192 45.922912 171.255409 106.959034 218.551598l0 0c20.427238 13.561877 34.223452 37.98001 34.223452 66.126047 0 38.513152-25.624611 70.231551-59.106166 76.229149l-181.885514 52.487422-0.856507 1.65264c-55.80498 18.506493-96.290043 70.210062-96.290043 131.821281 0 8.91095-0.183172 26.249851-0.183172 26.249851L65.157487 923.403884c0 0-14.546298-130.74067 94.262874-187.874925 107.389846-56.393381 243.522316-58.169841 243.522316-101.065813 0-33.976836-46.826492-43.645033-80.254835-95.205339-16.768919-25.871227-57.044204-64.46829-61.618383-199.966311C256.158612 193.980993 361.217367 86.079494 510.017344 86.079494c160.761404 0 248.587682 127.360689 248.587682 253.212002 0 125.845173-50.749848 201.406103-88.660272 233.645364-37.903262 32.235169-79.150688 65.98176-21.243837 90.749864 40.016389 17.114796 184.870498 44.079938 247.498884 95.737458 62.627363 51.656497 63.61076 141.013641 59.573817 163.979702L903.591141 923.403884 903.591141 923.403884zM903.591141 923.403884" fill="#e8989a" /></svg>